<svg width="2539" height="716" viewBox="0 0 2539 716" fill="none" xmlns="http://www.w3.org/2000/svg">
<path fill-rule="evenodd" clip-rule="evenodd" d="M30.1334 540.351C30.1334 523.289 41.9909 513.52 50.5754 506.448L50.5769 506.447C54.849 502.931 58.3104 500.078 59.0958 497.326C60.2327 493.35 59.5561 483.997 59.5561 483.997V344.235C71.9866 92.5079 345.518 -55.0397 567.56 83.7664C577.531 89.9987 591.017 83.1088 591.017 71.3473C591.017 66.6174 588.657 62.1455 584.706 59.5453C361.177 -87.638 47.8945 49.5695 30.1334 344.235V483.997C10.2842 501.014 2.30537 515.189 0.709344 540.351C-0.88668 565.518 0.709344 698.896 0.709344 698.896C0.709344 698.896 0.709344 715.266 14.8434 715.701C15.496 715.782 16.1612 715.828 16.8353 715.828H49.8586C58.9238 715.828 64.7514 707.41 64.7514 695.755C64.7514 695.755 67.3415 682.157 80.2918 682.157C93.2421 682.157 95.1846 695.755 95.1846 695.755C95.1846 702.23 97.1272 715.18 111.373 715.828H141.158C141.501 715.828 141.842 715.817 142.18 715.797C142.5 715.777 142.817 715.747 143.132 715.711H143.234C152.453 715.711 155.896 709.109 157.179 704.177C157.708 702.543 157.994 700.803 157.994 698.992V687.337H157.944V540.356C157.944 514.344 142.768 494.114 121.165 478.027C121.165 478.027 110.127 471.588 102.777 482.16C95.4249 492.738 102.777 499.633 102.777 499.633C103.275 500.195 103.825 500.776 104.417 501.378C105.585 502.567 106.917 503.832 108.341 505.183L108.348 505.189C116.816 513.242 128.522 524.375 128.522 540.356V683.985C128.522 685.836 127.021 687.337 125.17 687.337C123.554 687.337 122.157 686.2 121.695 684.651C119.331 676.726 109.966 653.99 80.2918 653.99C51.2389 653.99 41.2299 675.784 38.4613 684.135C37.8502 685.978 36.1609 687.337 34.219 687.337C31.9626 687.337 30.1334 685.508 30.1334 683.251V540.351ZM793.818 120.735C795.148 119.036 793.936 116.552 791.779 116.552H642.822C636.666 116.552 631.511 111.883 630.903 105.757C630.202 98.7099 635.739 92.5939 642.822 92.5939H730.571L756.094 47.3892C758.621 42.9122 763.361 40.1451 768.5 40.1451H805.185C807.562 40.1451 809.699 41.172 811.179 42.8009C811.647 43.3169 812.05 43.8936 812.374 44.5158C812.953 45.6288 813.279 46.8985 813.279 48.2391C813.279 51.0112 811.887 53.4596 809.763 54.9166C808.462 55.8119 806.885 56.333 805.185 56.333H778.687C774.063 56.333 769.806 58.8472 767.575 62.8992L751.227 92.5939H823.919C831.336 92.5939 835.615 101.017 831.238 107.006L752.759 214.413C747.574 221.51 744.779 230.069 744.779 238.862V371.744C727.017 666.409 413.734 803.616 190.205 656.433C186.254 653.833 183.894 649.361 183.894 644.631C183.894 632.87 197.381 625.98 207.353 632.212C429.394 771.018 702.925 623.471 715.355 371.744V234.41C715.355 233.044 715.427 231.688 715.57 230.343L649.664 164.438C644.901 159.672 644.901 151.953 649.664 147.188C654.427 142.427 662.148 142.427 666.91 147.188L726.52 206.799L793.818 120.735ZM485.21 403.614H486.032C490.418 399.364 487.129 379.904 469.449 352.905C468.983 355.495 468.752 358.121 468.754 360.741C468.754 361.323 468.766 361.905 468.788 362.481C468.871 364.505 469.089 366.523 469.449 368.526L442.037 373.874C439.811 357.691 443.093 341.23 451.357 327.136C448.973 324.42 446.495 321.642 443.889 318.83C441.1 315.82 438.165 312.774 435.047 309.729L428.331 303.426C415.902 311.054 401.774 315.481 387.214 316.31V288.897C393.506 288.361 399.666 286.788 405.443 284.238C394.845 276.013 383.406 268.941 371.316 263.133C353.223 254.908 343.082 255.591 340.751 258.059L339.244 262.309C339.199 262.698 339.17 263.088 339.155 263.477C339.125 264.277 339.154 265.076 339.244 265.87C339.178 266.968 339.178 268.065 339.244 269.163C339.381 269.846 339.586 270.671 339.792 271.49L339.83 271.642C340.023 272.416 340.212 273.18 340.34 273.822L340.424 274.242C340.651 275.396 340.814 276.22 341.3 277.798C341.848 279.579 342.671 281.77 343.355 283.277C343.727 284.097 344.018 284.83 344.336 285.639L344.381 285.752L344.382 285.755L344.383 285.756C344.64 286.406 344.919 287.111 345.275 287.936C345.501 288.467 345.781 289.009 346.084 289.55C346.344 290.016 346.621 290.482 346.897 290.944L346.976 291.078C347.517 291.983 348.046 292.868 348.426 293.693C349.064 295.075 349.538 295.962 350.297 297.386L350.313 297.416L351.03 298.767C351.898 300.406 353.104 302.313 354.13 303.932L354.187 304.023L354.236 304.099L355.28 305.758C355.645 306.35 355.95 306.866 356.255 307.387L356.256 307.388L356.256 307.389C356.614 307.995 356.971 308.602 357.427 309.335C357.748 309.85 358.118 310.422 358.569 311.1C360.213 313.569 362.133 316.174 364.052 318.774L367.889 324.121L375.153 332.893C375.641 333.48 376.113 334.067 376.579 334.648L377.21 335.437L377.917 336.292C378.313 336.768 378.714 337.233 379.128 337.689C383.103 342.211 387.489 346.739 392.148 351.398C436.554 395.803 475.753 408.688 485.21 403.614ZM636.992 357.569C636.992 495.445 525.225 607.212 387.352 607.212C249.479 607.212 137.712 495.445 137.712 357.569C137.712 219.699 249.479 107.932 387.352 107.932C525.225 107.932 636.992 219.699 636.992 357.569ZM537.978 288.897C513.819 287.567 489.852 293.85 469.449 306.851C466.894 303.942 464.301 301.033 461.653 298.16C459.188 295.489 456.675 292.848 454.098 290.268L450.123 286.57L452.043 284.921C458.744 279.169 463.521 271.5 465.727 262.946C467.932 254.392 467.462 245.367 464.377 237.091C459.922 227.748 452.848 219.896 444.017 214.494C435.185 209.091 424.974 206.374 414.626 206.663V234.076C417.164 234.041 419.683 234.354 422.115 235.007C424.354 235.609 426.517 236.494 428.549 237.653C432.789 240.06 436.31 243.556 438.747 247.78C441.078 253.264 438.747 259.294 432.306 265.733L429.153 268.612C414.857 256.704 399.163 246.576 382.417 238.462C347.741 222.836 329.924 230.1 321.152 238.462C318.48 241.138 316.34 244.305 314.848 247.78L312.381 255.044L292.644 314.53C308.269 353.452 346.097 422.665 428.331 452.547L496.86 429.793C498.009 429.363 499.09 428.786 500.077 428.078C500.624 427.683 501.141 427.248 501.626 426.778C502.025 426.393 502.402 425.978 502.754 425.543L505.632 423.08C525.231 403.341 512.622 365.375 486.307 328.507C501.932 319.386 519.923 315.142 537.978 316.31V288.897ZM252.487 435.549L283.05 343.719C307.26 394.918 347.743 436.657 398.179 462.411L308.817 492.156C304.4 493.654 299.774 494.438 295.111 494.483C288.018 494.468 281.029 492.774 274.716 489.541C268.401 486.303 262.943 481.624 258.786 475.872C258.001 474.785 257.266 473.667 256.584 472.524C255.55 470.788 254.635 468.982 253.846 467.131C252.398 463.732 251.371 460.15 250.796 456.467C249.702 449.461 250.281 442.293 252.487 435.549ZM42.7359 593.771C42.7359 586.259 48.824 580.173 56.3337 580.173H101.66C109.169 580.173 115.258 586.259 115.258 593.771C115.258 601.283 109.169 607.369 101.66 607.369H56.3337C48.824 607.369 42.7359 601.283 42.7359 593.771ZM893.268 449C904.868 455 918.668 458 934.668 458C955.468 458 971.868 453.1 983.868 443.3C996.068 433.3 1002.17 419.4 1002.17 401.6C1002.17 390.6 1000.27 381.6 996.468 374.6C992.668 367.4 987.668 361.5 981.468 356.9C975.468 352.3 968.768 348.5 961.368 345.5C953.968 342.5 946.568 339.8 939.168 337.4C931.968 334.8 925.268 331.9 919.068 328.7C912.868 325.5 907.868 321.5 904.068 316.7C900.468 311.9 898.668 305.6 898.668 297.8C898.668 287.8 902.268 280 909.468 274.4C916.668 268.8 926.268 266 938.268 266C948.468 266 957.368 268 964.968 272C972.568 276 979.568 281.8 985.968 289.4L1000.97 274.4C993.968 265.6 985.168 258.6 974.568 253.4C964.168 248.2 952.268 245.6 938.868 245.6C926.868 245.6 916.168 247.8 906.768 252.2C897.368 256.4 889.968 262.5 884.568 270.5C879.168 278.5 876.468 288.1 876.468 299.3C876.468 309.9 878.268 318.6 881.868 325.4C885.668 332.2 890.668 337.8 896.868 342.2C903.068 346.6 909.768 350.3 916.968 353.3C924.368 356.1 931.768 358.8 939.168 361.4C946.568 364 953.268 367 959.268 370.4C965.468 373.6 970.468 377.9 974.268 383.3C978.068 388.5 979.968 395.2 979.968 403.4C979.968 414 975.868 422.3 967.668 428.3C959.468 434.3 948.768 437.3 935.568 437.3C922.768 437.3 911.668 434.9 902.268 430.1C893.068 425.3 884.968 418 877.968 408.2L862.668 423.2C871.468 434.2 881.668 442.8 893.268 449ZM1038.68 314V455H1059.68V368.3C1059.68 360.5 1061.38 353.8 1064.78 348.2C1068.38 342.6 1073.08 338.3 1078.88 335.3C1084.88 332.1 1091.48 330.5 1098.68 330.5C1109.28 330.5 1118.08 334 1125.08 341C1132.08 347.8 1135.58 357 1135.58 368.6V455H1156.88V368.3C1156.88 360.5 1158.58 353.8 1161.98 348.2C1165.58 342.6 1170.28 338.3 1176.08 335.3C1182.08 332.1 1188.58 330.5 1195.58 330.5C1206.38 330.5 1215.28 334 1222.28 341C1229.28 347.8 1232.78 357 1232.78 368.6V455H1253.78V364.7C1253.78 353.7 1251.38 344.2 1246.58 336.2C1241.98 328.2 1235.58 322 1227.38 317.6C1219.38 313.2 1210.38 311 1200.38 311C1190.38 311 1181.18 313.2 1172.78 317.6C1164.58 322 1157.88 328.2 1152.68 336.2C1152.14 337.06 1151.63 337.937 1151.14 338.829C1150.68 337.936 1150.2 337.059 1149.68 336.2C1145.08 328.2 1138.78 322 1130.78 317.6C1122.98 313.2 1114.08 311 1104.08 311C1093.88 311 1084.68 313.2 1076.48 317.6C1069.75 321.303 1064.15 326.282 1059.68 332.536V314H1038.68ZM1318.47 448.4C1329.07 454.8 1341.07 458 1354.47 458C1365.07 458 1374.57 455.9 1382.97 451.7C1391.57 447.3 1398.47 441.2 1403.67 433.4C1404.19 432.65 1404.69 431.888 1405.17 431.116V455H1426.17V314H1405.17V337.829C1404.69 337.074 1404.19 336.331 1403.67 335.6C1398.47 327.8 1391.57 321.8 1382.97 317.6C1374.57 313.2 1364.97 311 1354.17 311C1340.97 311 1329.07 314.3 1318.47 320.9C1307.87 327.3 1299.47 336.1 1293.27 347.3C1287.27 358.3 1284.27 370.8 1284.27 384.8C1284.27 398.6 1287.27 411 1293.27 422C1299.47 433 1307.87 441.8 1318.47 448.4ZM1392.87 423.2C1384.07 433 1372.37 437.9 1357.77 437.9C1347.77 437.9 1338.87 435.6 1331.07 431C1323.27 426.4 1317.07 420.1 1312.47 412.1C1308.07 404.1 1305.87 394.9 1305.87 384.5C1305.87 374.1 1308.07 364.9 1312.47 356.9C1317.07 348.7 1323.17 342.3 1330.77 337.7C1338.57 333.1 1347.47 330.8 1357.47 330.8C1367.27 330.8 1375.77 333.1 1382.97 337.7C1390.37 342.1 1396.07 348.4 1400.07 356.6C1404.27 364.6 1406.37 373.9 1406.37 384.5C1406.37 400.5 1401.87 413.4 1392.87 423.2ZM1468.76 314V455H1489.76V372.8C1489.76 359 1493.16 348.6 1499.96 341.6C1506.76 334.4 1515.56 330.8 1526.36 330.8C1531.56 330.8 1536.16 331.6 1540.16 333.2C1544.36 334.8 1548.16 337.5 1551.56 341.3L1565.36 326.6C1560.36 321.2 1554.96 317.3 1549.16 314.9C1543.36 312.3 1536.96 311 1529.96 311C1514.76 311 1502.76 316.2 1493.96 326.6C1492.42 328.459 1491.02 330.437 1489.76 332.532V314H1468.76ZM1608.14 332.9V455H1629.14V332.9H1664.54V314H1629.14V254.6H1608.14V314H1572.44V332.9H1608.14ZM1698.57 248.6V455H1712.97H1720.47H1834.47V434.9H1720.47V359H1824.87V339.5H1720.47V268.7H1832.67V248.6H1720.47H1712.97H1698.57ZM1854.23 314L1919.33 455H1931.63L1997.33 314H1974.53L1925.94 422.517L1877.63 314H1854.23ZM2044.49 448.4C2055.69 454.8 2068.39 458 2082.59 458C2093.79 458 2104.19 455.9 2113.79 451.7C2123.59 447.3 2131.79 441.2 2138.39 433.4L2124.89 419.6C2119.89 425.8 2113.79 430.5 2106.59 433.7C2099.39 436.7 2091.49 438.2 2082.89 438.2C2072.29 438.2 2062.89 435.9 2054.69 431.3C2046.69 426.7 2040.39 420.3 2035.79 412.1C2032.61 406.178 2030.58 399.578 2029.7 392.3H2145.29C2145.89 389.5 2146.29 387.1 2146.49 385.1C2146.69 382.9 2146.79 381 2146.79 379.4C2146.79 366 2143.89 354.2 2138.09 344C2132.49 333.6 2124.69 325.5 2114.69 319.7C2104.89 313.9 2093.59 311 2080.79 311C2067.19 311 2054.89 314.2 2043.89 320.6C2032.89 327 2024.19 335.8 2017.79 347C2011.39 358 2008.19 370.4 2008.19 384.2C2008.19 398.2 2011.39 410.8 2017.79 422C2024.39 433.2 2033.29 442 2044.49 448.4ZM2029.75 374.3C2030.64 367.364 2032.55 361.164 2035.49 355.7C2039.89 347.7 2045.89 341.5 2053.49 337.1C2061.09 332.7 2069.99 330.5 2080.19 330.5C2089.99 330.5 2098.29 332.6 2105.09 336.8C2112.09 340.8 2117.39 346.6 2120.99 354.2C2123.96 359.984 2125.71 366.684 2126.23 374.3H2029.75ZM2281.52 372.2V455H2302.82V368.6C2302.82 358.2 2300.42 348.6 2295.62 339.8C2291.02 331 2284.52 324 2276.12 318.8C2267.72 313.6 2258.12 311 2247.32 311C2236.32 311 2226.52 313.4 2217.92 318.2C2210.64 322.357 2204.64 327.865 2199.92 334.722V314H2178.92V455H2199.92V371.9C2199.92 363.9 2201.72 356.8 2205.32 350.6C2208.92 344.4 2213.82 339.5 2220.02 335.9C2226.22 332.3 2233.42 330.5 2241.62 330.5C2253.62 330.5 2263.22 334.4 2270.42 342.2C2277.82 349.8 2281.52 359.8 2281.52 372.2ZM2362.24 332.9V455H2383.24V332.9H2418.64V314H2383.24V254.6H2362.24V314H2326.54V332.9H2362.24ZM2465.94 455C2472.94 457 2480.24 458 2487.84 458C2503.44 458 2515.74 454.3 2524.74 446.9C2533.94 439.3 2538.54 429.2 2538.54 416.6C2538.54 407.6 2536.64 400.5 2532.84 395.3C2529.24 389.9 2524.44 385.7 2518.44 382.7C2512.44 379.5 2506.14 377 2499.54 375.2C2492.94 373.2 2486.64 371.3 2480.64 369.5C2474.84 367.5 2470.04 365 2466.24 362C2462.44 358.8 2460.54 354.5 2460.54 349.1C2460.54 343.5 2462.84 339 2467.44 335.6C2472.24 332 2479.14 330.2 2488.14 330.2C2495.94 330.2 2502.94 331.7 2509.14 334.7C2515.54 337.5 2520.84 341.6 2525.04 347L2538.54 333.5C2533.34 326.1 2526.44 320.5 2517.84 316.7C2509.24 312.9 2499.64 311 2489.04 311C2479.04 311 2470.34 312.7 2462.94 316.1C2455.74 319.3 2450.14 323.9 2446.14 329.9C2442.34 335.7 2440.44 342.6 2440.44 350.6C2440.44 359 2442.24 365.8 2445.84 371C2449.64 376.2 2454.54 380.3 2460.54 383.3C2466.54 386.1 2472.84 388.5 2479.44 390.5C2486.04 392.3 2492.24 394.2 2498.04 396.2C2504.04 398.2 2508.94 400.9 2512.74 404.3C2516.54 407.7 2518.44 412.4 2518.44 418.4C2518.44 424.8 2515.74 429.8 2510.34 433.4C2505.14 437 2497.84 438.8 2488.44 438.8C2479.64 438.8 2471.64 437.2 2464.44 434C2457.44 430.6 2451.14 425.5 2445.54 418.7L2432.04 432.5C2436.24 437.7 2441.14 442.2 2446.74 446C2452.54 449.8 2458.94 452.8 2465.94 455Z" fill="url(#paint0_linear_3900_26070)"/>
<defs>
<linearGradient id="paint0_linear_3900_26070" x1="-218.5" y1="-972.5" x2="1795.86" y2="-269.995" gradientUnits="userSpaceOnUse">
<stop offset="0.104264" stop-color="#C61BFF"/>
<stop offset="0.661566" stop-color="#45CAFF"/>
</linearGradient>
</defs>
</svg>
