<svg width="592" height="346" viewBox="0 0 592 346" fill="none" xmlns="http://www.w3.org/2000/svg">
<g clip-path="url(#clip0_2979_960)">
<rect width="592" height="346" rx="40" fill="white"/>
<path d="M592 0H0V345.653H592V0Z" fill="white"/>
<path d="M166.5 43.1633L153.203 84.2436L173.669 90.9553L166.5 43.1633Z" fill="#4165B0"/>
<path d="M166.501 43.1633L179.798 84.2436L159.332 90.9553L166.501 43.1633Z" fill="#4165B0"/>
<path d="M207.546 73.0188H164.418V94.6583L207.546 73.0188Z" fill="#4165B0"/>
<path d="M207.548 73.0188L172.629 98.3613L159.91 80.8877L207.548 73.0188Z" fill="#4165B0"/>
<path d="M125.453 73.0188L160.372 98.3613L173.091 80.8877L125.453 73.0188Z" fill="#4165B0"/>
<path d="M125.453 73.0188H168.581V94.6583L125.453 73.0188Z" fill="#4165B0"/>
<path d="M191.821 121.274L178.524 80.1934L158.059 86.9051L191.821 121.274Z" fill="#4165B0"/>
<path d="M191.821 121.274L156.902 95.9311L169.621 78.4575L191.821 121.274Z" fill="#4165B0"/>
<path d="M141.18 121.274L176.098 95.9311L163.38 78.4575L141.18 121.274Z" fill="#4165B0"/>
<path d="M141.18 121.274L154.477 80.1934L174.942 86.9051L141.18 121.274Z" fill="#4165B0"/>
<path d="M296 172.769H0V345.653H296V172.769Z" fill="#4165B0"/>
<path d="M592 0H296V172.884H592V0Z" fill="#C01F3F"/>
<path d="M425.5 215.932L412.203 257.012L432.669 263.724L425.5 215.932Z" fill="#C01F3F"/>
<path d="M425.501 215.932L438.798 257.012L418.332 263.724L425.501 215.932Z" fill="#C01F3F"/>
<path d="M466.546 245.787H423.418V267.427L466.546 245.787Z" fill="#C01F3F"/>
<path d="M466.548 245.787L431.629 271.246L418.91 253.772L466.548 245.787Z" fill="#C01F3F"/>
<path d="M384.453 245.787L419.372 271.246L432.091 253.772L384.453 245.787Z" fill="#C01F3F"/>
<path d="M384.453 245.787H427.581V267.427L384.453 245.787Z" fill="#C01F3F"/>
<path d="M450.821 294.158L437.524 253.078L417.059 259.674L450.821 294.158Z" fill="#C01F3F"/>
<path d="M450.821 294.158L415.902 268.7L428.621 251.226L450.821 294.158Z" fill="#C01F3F"/>
<path d="M400.18 294.158L435.098 268.7L422.38 251.226L400.18 294.158Z" fill="#C01F3F"/>
<path d="M400.18 294.158L413.477 253.078L433.942 259.674L400.18 294.158Z" fill="#C01F3F"/>
</g>
<defs>
<clipPath id="clip0_2979_960">
<rect width="592" height="346" rx="40" fill="white"/>
</clipPath>
</defs>
</svg>
